<?xml version="1.0" encoding="utf-8"?>
<!-- Generator: Adobe Illustrator 22.0.1, SVG Export Plug-In . SVG Version: 6.00 Build 0)  -->
<svg version="1.1" id="Layer_1" xmlns="http://www.w3.org/2000/svg" xmlns:xlink="http://www.w3.org/1999/xlink" x="0px" y="0px"
	 viewBox="300 300 1000 600" style="enable-background:new 0 0 0 0;" xml:space="preserve">
<style type="text/css">
	.st0{fill:#CAD7E5;}
	.st1{fill:#3285FF;}
	.st2{fill:#2A9FEC;}
	.st3{fill:#22B9D8;}
	.st4{fill:#1AD3C5;}
</style>
<g>
	<g>
		<g>
			<path class="st0" d="M549.2,802.9c-9.7,9.6-22.2,14-35.8,14c-35,0-49.8-24.1-49.9-48.6c-0.1-24.6,15.9-49.7,49.9-49.7
				c12.8,0,24.9,4.8,34.6,14.4l-11.8,11.4c-6.2-6.1-14.5-8.9-22.8-8.9c-22.8,0-32.6,17-32.4,32.7c0.1,15.6,9.2,31.9,32.4,31.9
				c8.2,0,17.5-3.4,23.7-9.6L549.2,802.9z"/>
			<path class="st0" d="M622.6,781.6c0,19.1-13.1,34.6-34.6,34.6c-21.5,0-34.5-15.5-34.5-34.6c0-19,13.2-34.6,34.3-34.6
				C609,747,622.6,762.6,622.6,781.6z M569.9,781.6c0,10.1,6.1,19.5,18,19.5c12,0,18-9.4,18-19.5c0-10-7-19.7-18-19.7
				C576.1,761.9,569.9,771.6,569.9,781.6z"/>
			<path class="st0" d="M682.7,814.7V780c0-10.1-5.5-17.8-16-17.8c-10.1,0-17,8.5-17,18.6v33.9h-16.3v-66.5h14.7l1.1,9
				c6.7-6.6,13.5-10,21.8-10c15.6,0,28.1,11.7,28.1,32.6v34.9H682.7z"/>
			<path class="st0" d="M762.2,814.7V780c0-10.1-5.5-17.8-16-17.8c-10.1,0-17,8.5-17,18.6v33.9h-16.3v-66.5h14.7l1.1,9
				c6.7-6.6,13.5-10,21.8-10c15.6,0,28.1,11.7,28.1,32.6v34.9H762.2z"/>
			<path class="st0" d="M806.7,787.4c1.1,8.2,8.2,14.1,19.8,14.1c6.1,0,14-2.3,17.8-6.2l10.5,10.4c-7,7.3-18.4,10.8-28.5,10.8
				c-22.9,0-36.5-14.1-36.5-35.4c0-20.2,13.7-34.7,35.3-34.7c22.2,0,36.1,13.7,33.5,41.1H806.7z M842.8,773.8
				c-1.1-8.6-7.8-12.9-17.2-12.9c-8.9,0-16.2,4.3-18.6,12.9H842.8z"/>
			<path class="st0" d="M928.2,806.2c-7.7,7.5-15.8,10.5-25.6,10.5c-19.3,0-35.3-11.6-35.3-35.1s16-35.1,35.3-35.1
				c9.4,0,16.7,2.7,24,9.8l-10.4,10.9c-3.9-3.5-8.8-5.3-13.3-5.3c-11,0-19.1,8.1-19.1,19.7c0,12.7,8.6,19.4,18.8,19.4
				c5.3,0,10.5-1.5,14.5-5.5L928.2,806.2z"/>
			<path class="st0" d="M958.6,729.6v18.8h18.3v14.1h-18.4v28.7c0,6.3,3.5,9.4,8.6,9.4c2.6,0,5.5-0.8,7.9-2l4.6,14
				c-4.7,1.9-8.6,2.7-13.6,2.8c-14.4,0.5-23.8-7.7-23.8-24.2v-28.7h-12.4v-14.1h12.4v-17.1L958.6,729.6z"/>
			<path class="st0" d="M1003.2,787.4c1.1,8.2,8.2,14.1,19.8,14.1c6.1,0,14-2.3,17.8-6.2l10.5,10.4c-7,7.3-18.4,10.8-28.5,10.8
				c-22.9,0-36.5-14.1-36.5-35.4c0-20.2,13.7-34.7,35.3-34.7c22.2,0,36.1,13.7,33.5,41.1H1003.2z M1039.2,773.8
				c-1.1-8.6-7.8-12.9-17.2-12.9c-8.9,0-16.2,4.3-18.6,12.9H1039.2z"/>
			<path class="st0" d="M1136.6,720.6v94.1h-15.3l-1.1-9.2c-5.1,7.9-13.3,10.6-21.4,10.6c-19.5,0-34.2-12.9-34.2-34.7
				c0-22.9,14.4-34.7,33.8-34.7c7,0,17.9,3.8,21.8,10.6v-36.8H1136.6z M1081,781.5c0,11.6,8.3,19.5,18.8,19.5
				c10.4,0,19.3-7.5,19.3-19.5c0-11.6-8.9-19.4-19.3-19.4C1089.3,762.1,1081,769.5,1081,781.5z"/>
		</g>
	</g>
	<g>
		<polygon class="st1" points="984.7,572.7 869.3,692.9 738,692.9 985.8,445.1 		"/>
		<polygon class="st2" points="614.2,569.1 738,692.9 869.3,692.9 614.1,436 		"/>
		<polygon class="st3" points="737.2,322.6 614.3,436.2 614.2,569.1 862.2,321.5 		"/>
		<polygon class="st4" points="737.1,322.6 862.1,447.6 862.2,321.5 812,321.9 		"/>
		
			<rect x="767.8" y="472.4" transform="matrix(0.7071 0.7071 -0.7071 0.7071 590.7245 -417.7396)" class="st2" width="63.6" height="63.6"/>
	</g>
	<g>
		<g>
			<path class="st0" d="M551.6,835.5c10.9,0,17.1,5.3,17.1,14.8c0,10-6.3,15.7-17.1,15.7h-7.7v12h-10.8v-42.5H551.6z M543.9,857.5
				h7.2c4.7,0,7.5-2.4,7.5-6.9c0-4.4-2.7-6.7-7.5-6.7h-7.2V857.5z"/>
			<path class="st0" d="M588.2,844v8.4h20.3v8.5h-20.3v8.6h23.1v8.5h-34v-42.5h33.3v8.5H588.2z"/>
			<path class="st0" d="M632.2,844v8.4h20.3v8.5h-20.3v8.6h23.1v8.5h-34v-42.5h33.3v8.5H632.2z"/>
			<path class="st0" d="M684.7,866h-0.3h-8.2v12h-10.8v-42.5h19c11.2,0,17.7,5.3,17.7,14.8c0,6.5-2.7,11.2-7.7,13.7l8.9,14H691
				L684.7,866z M684.4,857.5c4.7,0,7.4-2.4,7.4-6.9c0-4.4-2.7-6.7-7.4-6.7h-8.2v13.5H684.4z"/>
			<path class="st0" d="M749.2,844.2V878h-10.8v-33.8h-12.7v-8.7h36.3v8.7H749.2z"/>
			<path class="st0" d="M808,860.2c0,11.2-7.5,18.3-19.4,18.3c-12,0-19.6-7.1-19.6-18.3v-24.7h10.8v24.7c0,5.8,3.7,9.3,8.9,9.3
				c5.1,0,8.6-3.5,8.6-9.3v-24.7H808V860.2z"/>
			<path class="st0" d="M838.5,844.2V878h-10.8v-33.8H815v-8.7h36.3v8.7H838.5z"/>
			<path class="st0" d="M900,856.7c0,12.4-9.8,21.8-23,21.8c-13.1,0-23-9.4-23-21.8c0-12.4,9.8-21.6,23-21.6
				C890.1,835.1,900,844.4,900,856.7z M865,856.8c0,7.2,5.5,12.7,12,12.7c6.6,0,11.8-5.5,11.8-12.7s-5.2-12.6-11.8-12.6
				C870.5,844.2,865,849.6,865,856.8z"/>
			<path class="st0" d="M928,866h-0.3h-8.2v12h-10.8v-42.5h19c11.2,0,17.7,5.3,17.7,14.8c0,6.5-2.7,11.2-7.7,13.7l8.9,14h-12.3
				L928,866z M927.7,857.5c4.7,0,7.4-2.4,7.4-6.9c0-4.4-2.7-6.7-7.4-6.7h-8.2v13.5H927.7z"/>
			<path class="st0" d="M955.7,878v-42.5h10.8V878H955.7z"/>
			<path class="st0" d="M1007.8,878l-19.6-26.2V878h-10.1v-42.5h9.5l19.6,26.2v-26.2h10.1V878H1007.8z"/>
			<path class="st0" d="M1066.5,856.4V873c-4.6,3.2-11.7,5.5-17.7,5.5c-12.9,0-22.7-9.4-22.7-21.7c0-12.3,10-21.6,23.4-21.6
				c6.3,0,13,2.4,17.4,6.3l-6.1,7.4c-3.1-2.9-7.4-4.6-11.4-4.6c-7,0-12.3,5.5-12.3,12.6c0,7.2,5.4,12.7,12.5,12.7
				c2.2,0,5-0.8,7.5-2.1v-11H1066.5z"/>
		</g>
	</g>
</g>
</svg>
